<?xml version='1.0' encoding='utf-8'?>
<!DOCTYPE svg PUBLIC '-//W3C//DTD SVG 1.1//EN' 'http://www.w3.org/Graphics/SVG/1.1/DTD/svg11.dtd'>
<svg version="1.1" xmlns="http://www.w3.org/2000/svg" viewBox="0 0 512 512" xmlns:xlink="http://www.w3.org/1999/xlink" enable-background="new 0 0 512 512">
  <g>
    <g>
      <path d="M234.7,500.8V264.1H43.1v216.5c0,11.3,9.5,20.4,21.3,20.4h170.3C234.7,500.9,234.7,500.9,234.7,500.8L234.7,500.8z"/>
      <path d="m32.3,218.3h447.4c11.8,0 21.3-9.1 21.3-20.4v-79c0-11.3-9.5-20.4-21.3-20.4h-447.4c-11.8,0-21.3,9.1-21.3,20.4v79c3.55271e-15,11.2 9.5,20.4 21.3,20.4z"/>
      <path d="m277.3,264.1v236.7c0,0.1 0,0.1 0,0.2h170.3c11.8,0 21.3-9.1 21.3-20.4v-216.5h-191.6z"/>
      <path d="m361.4,55.6c-7.6-25.7-32.5-44.6-62.2-44.6-16.6,0-31.8,6-43.2,15.8-11.5-9.8-26.6-15.8-43.2-15.8-29.6,0-54.6,18.9-62.1,44.6h210.7z"/>
    </g>
  </g>
</svg>
